<svg width="36" height="36" viewBox="0 0 36 36" fill="none" xmlns="http://www.w3.org/2000/svg">
<rect width="36" height="36" rx="6" fill="#E56700"/>
<path d="M21.473 22.527L22.527 21.473L18.75 17.696V13H17.25V18.3038L21.473 22.527ZM18.0017 27.5C16.6877 27.5 15.4527 27.2507 14.2965 26.752C13.1403 26.2533 12.1347 25.5766 11.2795 24.7218C10.4243 23.8669 9.74725 22.8617 9.24825 21.706C8.74942 20.5503 8.5 19.3156 8.5 18.0017C8.5 16.6877 8.74933 15.4527 9.248 14.2965C9.74667 13.1403 10.4234 12.1347 11.2783 11.2795C12.1331 10.4243 13.1383 9.74725 14.294 9.24825C15.4497 8.74942 16.6844 8.5 17.9983 8.5C19.3123 8.5 20.5473 8.74933 21.7035 9.248C22.8597 9.74667 23.8653 10.4234 24.7205 11.2783C25.5757 12.1331 26.2528 13.1383 26.7518 14.294C27.2506 15.4497 27.5 16.6844 27.5 17.9983C27.5 19.3123 27.2507 20.5473 26.752 21.7035C26.2533 22.8597 25.5766 23.8653 24.7218 24.7205C23.8669 25.5757 22.8617 26.2528 21.706 26.7518C20.5503 27.2506 19.3156 27.5 18.0017 27.5ZM18 26C20.2167 26 22.1042 25.2208 23.6625 23.6625C25.2208 22.1042 26 20.2167 26 18C26 15.7833 25.2208 13.8958 23.6625 12.3375C22.1042 10.7792 20.2167 10 18 10C15.7833 10 13.8958 10.7792 12.3375 12.3375C10.7792 13.8958 10 15.7833 10 18C10 20.2167 10.7792 22.1042 12.3375 23.6625C13.8958 25.2208 15.7833 26 18 26Z" fill="white"/>
</svg>
