<svg width="48" height="45" viewBox="0 0 48 45" fill="none" xmlns="http://www.w3.org/2000/svg">
<rect width="48" height="45" rx="6" fill="#63758D"/>
<path d="M17.6155 30.5C17.1552 30.5 16.7708 30.3458 16.4625 30.0375C16.1542 29.7292 16 29.3448 16 28.8845V16.1155C16 15.6552 16.1542 15.2708 16.4625 14.9625C16.7708 14.6542 17.1552 14.5 17.6155 14.5H24.0192V15.5H17.6155C17.4615 15.5 17.3204 15.5641 17.1923 15.6923C17.0641 15.8204 17 15.9615 17 16.1155V28.8845C17 29.0385 17.0641 29.1796 17.1923 29.3077C17.3204 29.4359 17.4615 29.5 17.6155 29.5H24.0192V30.5H17.6155ZM28.4615 26.0385L27.7595 25.3193L30.0788 23H21.1923V22H30.0788L27.7595 19.6807L28.4615 18.9615L32 22.5L28.4615 26.0385Z" fill="white"/>
</svg>
