<svg width="48" height="45" viewBox="0 0 48 45" fill="none" xmlns="http://www.w3.org/2000/svg">
<rect width="48" height="45" rx="6" fill="#0844C4"/>
<path d="M23.8463 28.75H24.8462V27.75H26.3462C26.4884 27.75 26.6073 27.7023 26.703 27.6068C26.7985 27.5113 26.8462 27.3923 26.8462 27.25V24.25C26.8462 24.1077 26.7985 23.9888 26.703 23.8933C26.6073 23.7978 26.4884 23.75 26.3462 23.75H22.8463V21.75H26.8462V20.75H24.8462V19.75H23.8463V20.75H22.3463C22.2039 20.75 22.085 20.7977 21.9895 20.8932C21.894 20.9887 21.8463 21.1077 21.8463 21.25V24.25C21.8463 24.3923 21.894 24.5112 21.9895 24.6067C22.085 24.7022 22.2039 24.75 22.3463 24.75H25.8462V26.75H21.8463V27.75H23.8463V28.75ZM18.6155 31.5C18.1552 31.5 17.7708 31.3458 17.4625 31.0375C17.1542 30.7292 17 30.3448 17 29.8845V15.1155C17 14.6552 17.1542 14.2708 17.4625 13.9625C17.7708 13.6542 18.1552 13.5 18.6155 13.5H26.5L31 18V29.8845C31 30.3448 30.8458 30.7292 30.5375 31.0375C30.2292 31.3458 29.8448 31.5 29.3845 31.5H18.6155ZM26 18.2693V14.5H18.6155C18.4615 14.5 18.3204 14.5641 18.1923 14.6923C18.0641 14.8204 18 14.9615 18 15.1155V29.8845C18 30.0385 18.0641 30.1796 18.1923 30.3078C18.3204 30.4359 18.4615 30.5 18.6155 30.5H29.3845C29.5385 30.5 29.6796 30.4359 29.8077 30.3078C29.9359 30.1796 30 30.0385 30 29.8845V18.2693H26Z" fill="white"/>
</svg>
