<svg width="48" height="45" viewBox="0 0 48 45" fill="none" xmlns="http://www.w3.org/2000/svg">
<rect width="48" height="45" rx="6" fill="#0844C4"/>
<path d="M32.4462 31.9999L29.7653 29.3286C29.4307 29.5325 29.077 29.6953 28.704 29.8171C28.331 29.939 27.9425 29.9999 27.5385 29.9999C26.4423 29.9999 25.508 29.6136 24.7355 28.8411C23.9632 28.0688 23.577 27.1345 23.577 26.0384C23.577 24.9422 23.9632 24.0079 24.7355 23.2354C25.508 22.463 26.4423 22.0769 27.5385 22.0769C28.6347 22.0769 29.5689 22.463 30.3413 23.2354C31.1138 24.0079 31.5 24.9422 31.5 26.0384C31.5 26.4397 31.4423 26.8291 31.327 27.2066C31.2115 27.5841 31.0423 27.937 30.8193 28.2651L33.5 30.9461L32.4462 31.9999ZM27.5363 28.4999C28.2249 28.4999 28.8077 28.2621 29.2845 27.7866C29.7615 27.3111 30 26.7291 30 26.0406C30 25.352 29.7622 24.7691 29.2867 24.2921C28.8112 23.8153 28.2292 23.5769 27.5408 23.5769C26.8521 23.5769 26.2692 23.8146 25.7923 24.2901C25.3154 24.7655 25.077 25.3475 25.077 26.0361C25.077 26.7248 25.3147 27.3075 25.7902 27.7844C26.2656 28.2614 26.8476 28.4999 27.5363 28.4999ZM32.5 20.8461H31V15.8076C31 15.7306 30.9679 15.6601 30.9038 15.5961C30.8398 15.532 30.7692 15.4999 30.6923 15.4999H28.5V18.1151H19.5V15.4999H17.3077C17.2307 15.4999 17.1603 15.532 17.0963 15.5961C17.0321 15.6601 17 15.7306 17 15.8076V29.1921C17 29.2691 17.0321 29.3396 17.0963 29.4036C17.1603 29.4678 17.2307 29.4999 17.3077 29.4999H22.25V30.9999H17.3077C16.8106 30.9999 16.385 30.8229 16.031 30.4689C15.677 30.1149 15.5 29.6893 15.5 29.1921V15.8076C15.5 15.3105 15.677 14.8849 16.031 14.5309C16.385 14.1769 16.8106 13.9999 17.3077 13.9999H21.7135C21.852 13.5127 22.135 13.1089 22.5625 12.7884C22.99 12.4679 23.4692 12.3076 24 12.3076C24.5513 12.3076 25.0382 12.4679 25.4605 12.7884C25.883 13.1089 26.1635 13.5127 26.302 13.9999H30.6923C31.1894 13.9999 31.615 14.1769 31.969 14.5309C32.323 14.8849 32.5 15.3105 32.5 15.8076V20.8461ZM24.0017 15.6154C24.2583 15.6154 24.4727 15.5285 24.6453 15.3549C24.8176 15.1814 24.9038 14.9663 24.9038 14.7096C24.9038 14.4531 24.817 14.2386 24.6435 14.0661C24.47 13.8938 24.2549 13.8076 23.9983 13.8076C23.7417 13.8076 23.5273 13.8944 23.3548 14.0679C23.1824 14.2415 23.0963 14.4566 23.0963 14.7131C23.0963 14.9696 23.183 15.1841 23.3565 15.3566C23.53 15.5291 23.7451 15.6154 24.0017 15.6154Z" fill="white"/>
</svg>
