<svg width="48" height="45" viewBox="0 0 48 45" fill="none" xmlns="http://www.w3.org/2000/svg">
<rect width="48" height="45" rx="6" fill="#0844C4"/>
<path d="M24 29.5C22.0556 29.5 20.4028 28.8194 19.0417 27.4583C17.6806 26.0972 17 24.4444 17 22.5H18.5C18.5 24.0139 19.0382 25.309 20.1146 26.3854C21.191 27.4618 22.4861 28 24 28C25.5139 28 26.809 27.4618 27.8854 26.3854C28.9618 25.309 29.5 24.0139 29.5 22.5C29.5 20.9861 28.9618 19.691 27.8854 18.6146C26.809 17.5382 25.5139 17 24 17C23.1389 17 22.3434 17.1778 21.6135 17.5333C20.8838 17.8889 20.2696 18.3778 19.7708 19H22V20.5H17V15.5H18.5V18.2083C19.1389 17.375 19.934 16.7153 20.8854 16.2292C21.8368 15.7431 22.875 15.5 24 15.5C24.9722 15.5 25.8828 15.6847 26.7319 16.0542C27.581 16.4236 28.3199 16.9227 28.9485 17.5515C29.5773 18.1801 30.0764 18.919 30.4458 19.7681C30.8153 20.6172 31 21.5278 31 22.5C31 23.4722 30.8153 24.3828 30.4458 25.2319C30.0764 26.081 29.5773 26.8199 28.9485 27.4485C28.3199 28.0773 27.581 28.5764 26.7319 28.9458C25.8828 29.3153 24.9722 29.5 24 29.5ZM26.0833 25.3333L23.25 22.5V18.5H24.75V21.875L27.1458 24.2708L26.0833 25.3333Z" fill="white"/>
</svg>
